<svg xmlns="http://www.w3.org/2000/svg" width="24" height="24" viewBox="0 0 24 24" fill="none" stroke="currentColor" stroke-width="2" stroke-linecap="round" stroke-linejoin="round" class="lucide lucide-brain-circuit"><path d="M12 5a3 3 0 1 0-5.997.125 4 4 0 0 0-2.526 5.77 4 4 0 0 0 .556 6.588A3 3 0 1 0 12 18Z"/><path d="M12 18a3 3 0 1 1 5.997-.125 4 4 0 0 1 2.526-5.77 4 4 0 0 1-.556-6.588A3 3 0 1 1 12 5Z"/><path d="M12 12a4 4 0 0 0-4 4v2"/><path d="M12 12a4 4 0 0 1 4 4v2"/><path d="M12 12a4 4 0 0 0-4-4H4"/><path d="M12 12a4 4 0 0 1 4-4h4"/><path d="M16 12h-8"/><path d="M12 5.5V4"/><path d="M12 20v-1.5"/><path d="M4.5 10H3"/><path d="M21 10h-1.5"/></svg>
